<?xml version="1.0" encoding="UTF-8" standalone="no"?>
<!-- Created with Inkscape (http://www.inkscape.org/) -->

<svg
   version="1.1"
   id="svg2"
   width="120.13162"
   height="65.61161"
   viewBox="0 0 120.13162 65.61161"
   xmlns="http://www.w3.org/2000/svg"
   xmlns:svg="http://www.w3.org/2000/svg">
  <defs
     id="defs6">
    <clipPath
       clipPathUnits="userSpaceOnUse"
       id="clipPath14478">
      <path
         d="M 0,3581.686 H 1920 V 0 H 0 Z"
         id="path14476" />
    </clipPath>
  </defs>
  <g
     id="g8"
     transform="matrix(1.3333333,0,0,-1.3333333,-466.66666,4735.0539)">
    <g
       id="g14472">
      <g
         id="g14474"
         clip-path="url(#clipPath14478)">
        <g
           id="g14480"
           transform="translate(382.9123,3513.8677)">
          <path
             d="M 0,0 C 2.838,-0.448 5.699,0.267 5.699,0.267 V 7.58 c 0,0 -0.957,-0.078 -1.535,0.388 C 3.781,8.278 3.786,8.865 3.786,9.359 V 24.773 H -5.773 V 6.012 c 0,0 0.222,-5.139 5.773,-6.012"
             style="fill:#5da1df;fill-opacity:1;fill-rule:nonzero;stroke:none"
             id="path14482" />
        </g>
        <g
           id="g14484"
           transform="translate(423.8342,3513.8677)">
          <path
             d="M 0,0 C 2.838,-0.448 5.699,0.267 5.699,0.267 V 7.58 c 0,0 -0.957,-0.078 -1.535,0.388 C 3.781,8.278 3.786,8.865 3.786,9.359 V 37.076 H -5.773 V 6.012 C -5.777,6.012 -5.551,0.873 0,0"
             style="fill:#5da1df;fill-opacity:1;fill-rule:nonzero;stroke:none"
             id="path14486" />
        </g>
        <g
           id="g14488"
           transform="translate(387.2476,3545.9895)">
          <path
             d="m 0,0 c 0,-2.926 -2.362,-5.301 -5.269,-5.301 -2.912,0 -5.269,2.37 -5.269,5.301 0,2.927 2.357,5.301 5.269,5.301 C -2.362,5.301 0,2.927 0,0"
             style="fill:#5da1df;fill-opacity:1;fill-rule:nonzero;stroke:none"
             id="path14490" />
        </g>
        <g
           id="g14492"
           transform="translate(405.2635,3521.4058)">
          <path
             d="m 0,0 c -0.762,-0.638 -1.552,-0.73 -2.533,-0.73 v -6.814 c 4.969,-1.172 7.885,0.459 7.885,0.459 3.813,1.803 4.766,6.434 4.983,10.477 0.06,1.101 0.088,2.335 0.032,3.601 -0.171,3.947 -1.216,8.245 -4.755,10.015 -1.439,0.716 -3.079,0.986 -4.674,0.986 -4.687,0 -7.885,-2.344 -7.885,-2.344 L -8,17.179 h -6.277 v -36.503 h 9.554 v 29.599 c 0.055,0.027 1.067,0.961 3.027,0.614 C 0.99,10.423 1.28,7.256 1.28,5.444 1.275,4.09 1.262,1.055 0,0"
             style="fill:#5da1df;fill-opacity:1;fill-rule:nonzero;stroke:none"
             id="path14494" />
        </g>
        <g
           id="g14496"
           transform="translate(364.277,3521.4058)">
          <path
             d="m 0,0 c -0.762,-0.638 -1.548,-0.73 -2.533,-0.73 v -6.814 c 4.969,-1.172 7.885,0.459 7.885,0.459 3.813,1.803 4.766,6.434 4.983,10.477 0.06,1.101 0.088,2.335 0.032,3.601 -0.171,3.947 -1.216,8.245 -4.755,10.015 -1.439,0.716 -3.079,0.986 -4.674,0.986 -4.687,0 -7.885,-2.344 -7.885,-2.344 L -8,17.179 h -6.277 v -36.503 h 9.554 v 29.599 c 0.055,0.027 1.067,0.961 3.026,0.614 C 0.99,10.423 1.28,7.256 1.28,5.444 1.275,4.09 1.262,1.055 0,0"
             style="fill:#5da1df;fill-opacity:1;fill-rule:nonzero;stroke:none"
             id="path14498" />
        </g>
        <g
           id="g14500"
           transform="translate(436.5466,3517.5146)">
          <path
             d="M 0,0 C 0.438,0 0.675,0.182 0.675,0.542 0.675,0.906 0.438,1.034 0,1.034 H -0.443 V 0 Z m -1.03,1.502 h 1.09 c 0.674,0 1.191,-0.236 1.191,-0.96 C 1.251,0.054 1,-0.246 0.616,-0.379 L 1.38,-1.719 H 0.724 L 0.035,-0.468 H -0.443 V -1.719 H -1.03 Z"
             style="fill:#5da1df;fill-opacity:1;fill-rule:nonzero;stroke:none"
             id="path14502" />
        </g>
        <g
           id="g14504"
           transform="translate(436.5267,3520.4077)">
          <path
             d="m 0,0 c -1.645,0 -2.982,-1.338 -2.982,-2.983 0,-1.645 1.337,-2.983 2.982,-2.983 1.645,0 2.983,1.338 2.983,2.983 C 2.983,-1.338 1.645,0 0,0 m 0,-6.554 c -1.969,0 -3.572,1.602 -3.572,3.571 0,1.97 1.603,3.572 3.572,3.572 1.97,0 3.572,-1.602 3.572,-3.572 C 3.572,-4.952 1.97,-6.554 0,-6.554"
             style="fill:#5da1df;fill-opacity:1;fill-rule:nonzero;stroke:none"
             id="path14506" />
        </g>
      </g>
    </g>
  </g>
</svg>
